<?xml version="1.0" encoding="UTF-8" standalone="no"?>
<!-- Created with Inkscape (http://www.inkscape.org/) -->

<svg
   xmlns:dc="http://purl.org/dc/elements/1.1/"
   xmlns:cc="http://creativecommons.org/ns#"
   xmlns:rdf="http://www.w3.org/1999/02/22-rdf-syntax-ns#"
   xmlns:svg="http://www.w3.org/2000/svg"
   xmlns="http://www.w3.org/2000/svg"
   xmlns:sodipodi="http://sodipodi.sourceforge.net/DTD/sodipodi-0.dtd"
   xmlns:inkscape="http://www.inkscape.org/namespaces/inkscape"
   width="86.311005mm"
   height="85.882774mm"
   viewBox="0 0 86.311006 85.882775"
   version="1.1"
   id="svg8"
   inkscape:version="0.92.5 (2060ec1f9f, 2020-04-08)"
   sodipodi:docname="flute2.svg">
  <defs
     id="defs2" />
  <sodipodi:namedview
     id="base"
     pagecolor="#ff3cff"
     bordercolor="#666666"
     borderopacity="1.0"
     inkscape:pageopacity="0"
     inkscape:pageshadow="2"
     inkscape:zoom="2.8"
     inkscape:cx="219.1457"
     inkscape:cy="145.08875"
     inkscape:document-units="mm"
     inkscape:current-layer="layer1"
     showgrid="false"
     inkscape:window-width="3840"
     inkscape:window-height="2136"
     inkscape:window-x="1920"
     inkscape:window-y="0"
     inkscape:window-maximized="1" />
  <metadata
     id="metadata5">
    <rdf:RDF>
      <cc:Work
         rdf:about="">
        <dc:format>image/svg+xml</dc:format>
        <dc:type
           rdf:resource="http://purl.org/dc/dcmitype/StillImage" />
        <dc:title></dc:title>
      </cc:Work>
    </rdf:RDF>
  </metadata>
  <g
     inkscape:label="Layer 1"
     inkscape:groupmode="layer"
     id="layer1"
     transform="translate(-55.864734,-33.855204)">
    <path
       style="fill:#E7FFFF;fill-opacity:1;stroke:#E7FFFF;stroke-width:1.26236224;stroke-miterlimit:4;stroke-dasharray:none;stroke-opacity:1"
       d="M 156.60352,15.888672 -65.177734,235.35938 16.6875,314.63477 236.74219,96.871094 Z m -2.63672,24.535156 a 13.534317,14.544469 45.3 0 1 9.96484,3.798828 13.534317,14.544469 45.3 0 1 -0.81836,19.847656 13.534317,14.544469 45.3 0 1 -19.85742,0.611329 13.534317,14.544469 45.3 0 1 0.81836,-19.851563 13.534317,14.544469 45.3 0 1 9.89258,-4.40625 z m 20.42382,25.476563 a 9.9814673,9.4763909 45.3 0 1 7.07813,3.068359 9.9814673,9.4763909 45.3 0 1 0.28516,13.759766 9.9814673,9.4763909 45.3 0 1 -13.75586,-0.427735 9.9814673,9.4763909 45.3 0 1 -0.28711,-13.761719 9.9814673,9.4763909 45.3 0 1 6.67968,-2.638671 z m -45.20117,29.117187 a 24.748737,25.127544 45.3 0 1 17.9043,7.257812 24.748737,25.127544 45.3 0 1 -0.45313,35.26563 24.748737,25.127544 45.3 0 1 -35.26953,0.084 24.748737,25.127544 45.3 0 1 0.45313,-35.26562 24.748737,25.127544 45.3 0 1 17.36523,-7.341802 z M 89.521484,133.91602 a 24.748737,25.127544 45.3 0 1 17.904296,7.25976 24.748737,25.127544 45.3 0 1 -0.45508,35.26563 24.748737,25.127544 45.3 0 1 -35.267575,0.084 24.748737,25.127544 45.3 0 1 0.451172,-35.26562 24.748737,25.127544 45.3 0 1 17.367187,-7.34375 z M 47.875,175.12695 a 24.748737,25.127544 45.3 0 1 17.904297,7.25977 24.748737,25.127544 45.3 0 1 -0.451172,35.26562 24.748737,25.127544 45.3 0 1 -35.269531,0.084 24.748737,25.127544 45.3 0 1 0.451172,-35.26758 24.748737,25.127544 45.3 0 1 17.365234,-7.3418 z M 7.2128906,216.07617 a 24.748737,25.127544 45.3 0 1 17.9042974,7.25781 24.748737,25.127544 45.3 0 1 -0.451172,35.26758 24.748737,25.127544 45.3 0 1 -35.269532,0.082 24.748737,25.127544 45.3 0 1 0.453125,-35.26562 24.748737,25.127544 45.3 0 1 17.3632816,-7.3418 z m -75.5683596,22.42774 -8.84375,8.75195 0.300781,0.30664 a 56.785712,42.142855 45.3 0 0 -1.064453,0.95508 56.785712,42.142855 45.3 0 0 9.988282,70.00586 56.785712,42.142855 45.3 0 0 69.896484,10.7207 56.785712,42.142855 45.3 0 0 0.9472656,-1.07226 l 0.070312,0.0664 10.4003914,-10.29297 z m 14.394531,29.56054 c 3.076298,0.0817 6.336948,0.80543 10.253907,3.83985 l 19.363281,19.20898 c 4.761834,6.52037 4.977723,12.02432 5.796875,18.06445 L -59.402344,268.25 c 1.816828,-0.053 3.595628,-0.23454 5.441406,-0.18555 z"
       transform="matrix(0.26458333,0,0,0.26458333,79.301535,29.887497)"
       id="path815"
       inkscape:connector-curvature="0" />
  </g>
</svg>
