<?xml version="1.0" encoding="UTF-8" standalone="no"?>
<!-- Created with Inkscape (http://www.inkscape.org/) -->

<svg
   xmlns:dc="http://purl.org/dc/elements/1.1/"
   xmlns:cc="http://creativecommons.org/ns#"
   xmlns:rdf="http://www.w3.org/1999/02/22-rdf-syntax-ns#"
   xmlns:svg="http://www.w3.org/2000/svg"
   xmlns="http://www.w3.org/2000/svg"
   xmlns:sodipodi="http://sodipodi.sourceforge.net/DTD/sodipodi-0.dtd"
   xmlns:inkscape="http://www.inkscape.org/namespaces/inkscape"
   width="20.563894mm"
   height="63.747627mm"
   viewBox="0 0 20.563895 63.747627"
   version="1.1"
   id="svg8"
   inkscape:version="0.92.5 (2060ec1f9f, 2020-04-08)"
   sodipodi:docname="recorder.svg">
  <defs
     id="defs2" />
  <sodipodi:namedview
     id="base"
     pagecolor="#ff51ff"
     bordercolor="#666666"
     borderopacity="1.0"
     inkscape:pageopacity="0"
     inkscape:pageshadow="2"
     inkscape:zoom="3.959798"
     inkscape:cx="11.696867"
     inkscape:cy="97.881584"
     inkscape:document-units="mm"
     inkscape:current-layer="layer1"
     showgrid="true"
     inkscape:snap-nodes="false"
     inkscape:snap-object-midpoints="false"
     inkscape:window-width="1920"
     inkscape:window-height="1016"
     inkscape:window-x="0"
     inkscape:window-y="0"
     inkscape:window-maximized="1">
    <inkscape:grid
       type="xygrid"
       id="grid4654"
       originx="-48.597651"
       originy="-116.9524" />
  </sodipodi:namedview>
  <metadata
     id="metadata5">
    <rdf:RDF>
      <cc:Work
         rdf:about="">
        <dc:format>image/svg+xml</dc:format>
        <dc:type
           rdf:resource="http://purl.org/dc/dcmitype/StillImage" />
        <dc:title></dc:title>
      </cc:Work>
    </rdf:RDF>
  </metadata>
  <g
     inkscape:groupmode="layer"
     id="layer2"
     inkscape:label="Layer 2"
     transform="translate(-48.597644,-116.29998)" />
  <g
     inkscape:label="Layer 1"
     inkscape:groupmode="layer"
     id="layer1"
     transform="translate(-48.597644,-116.29998)">
    <path
       style="fill:#ffffff;fill-opacity:1;stroke:#fffffe;stroke-width:0.49362466;stroke-miterlimit:4;stroke-dasharray:none;stroke-opacity:1"
       d="m 58.757324,116.54843 -2.782159,0.31958 c -2.577122,0.2959 -2.873154,0.36501 -4.025378,0.94017 -1.879788,0.93836 -2.241528,1.66249 -1.981194,3.9641 l 0.210186,1.85813 -1.086739,0.507 c -0.244796,0.6306 -0.214542,0.62813 0.592767,1.07854 l 1.244545,0.25092 0.181676,0.96701 c 0.09998,0.53193 0.385693,2.39205 0.634539,4.13396 l 0.452201,3.16745 -1.605245,0.93449 c -1.324575,1.36056 -1.397369,0.80717 -1.623599,1.67725 -0.160095,0.61574 -0.166638,0.64058 -0.04394,1.62009 0.646174,1.60226 0.581418,1.45643 1.214678,1.58369 0.633265,0.12726 1.153213,0.32465 1.154371,0.43885 0.0014,0.1142 0.32917,6.29623 0.728692,13.73751 0.399523,7.44129 0.728196,13.56875 0.729356,13.6167 0.0014,0.048 -0.572629,0.2405 -1.275046,0.42801 -0.653403,0.35361 -0.671901,0.2995 -1.708229,1.78699 -0.07616,1.26411 0.0596,1.83773 0.52633,2.28575 1.068517,0.67426 1.044671,0.71994 1.965628,1.25953 l 1.664257,0.38257 v 1.50138 1.50138 l -1.595962,0.35572 c -2.147015,0.4785 -3.179249,1.04127 -2.922063,1.59328 0.364998,0.78339 1.500544,1.15861 3.932551,1.30003 0.885214,0.0514 3.914051,0.0759 6.730624,0.0542 6.646441,-0.0509 7.770765,-0.24228 8.10579,-1.38005 0.134841,-0.45793 0.03893,-0.56688 -0.830802,-0.94275 -0.54094,-0.23379 -1.609222,-0.55772 -2.37372,-0.71971 l -1.389754,-0.29481 v -1.47246 -1.47247 l 1.536288,-0.34385 c 1.81625,-0.91173 0.04821,-0.0243 1.845511,-0.94085 0.634987,-0.54524 0.669929,-2.82971 0.355395,-3.30793 -0.427613,-0.65012 0.04926,-0.0412 -0.773359,-1.03341 l -1.571429,-0.49461 0.04641,-1.79928 c 0.02558,-0.98972 0.303435,-6.56829 0.6173,-12.3967 0.313875,-5.82838 0.572406,-11.21036 0.574202,-11.95992 l 0.0033,-1.36301 0.951477,-0.21787 c 0.523077,-0.11992 0.575985,-0.4336 1.179537,-0.697 0.66587,-1.27587 0.562809,-1.23251 0.562809,-1.71727 0,-0.95 -0.186576,-1.7539 -2.484299,-2.93194 l -0.989934,-0.50752 0.588126,-4.15357 0.588788,-4.15306 1.168958,-0.24575 c 1.042131,-0.14858 1.031276,-0.14425 0.79566,-1.13895 l -1.003858,-0.412 0.07625,-2.04555 c 0.08056,-2.15764 -0.115644,-2.69126 -1.277035,-3.47516 -1.045161,-0.70544 -2.102722,-0.98758 -4.92779,-1.315 z m -0.09084,5.22075 c 2.008586,1.4e-4 3.63675,0.84541 3.63683,1.88808 -8e-5,1.04267 -1.628244,1.88794 -3.63683,1.88808 -2.008845,5e-5 -3.637414,-0.84527 -3.637494,-1.88808 8e-5,-1.04281 1.628649,-1.88813 3.637494,-1.88808 z m 0.363351,15.87032 c 1.734062,-7e-5 3.139922,1.09439 3.140206,2.44464 8.5e-5,1.35045 -1.405883,2.44523 -3.140206,2.44516 -1.734323,7e-5 -3.140391,-1.09471 -3.140206,-2.44516 1.84e-4,-1.35025 1.406144,-2.44471 3.140206,-2.44464 z m 0,6.04165 c 1.734323,-7e-5 3.140291,1.09471 3.140206,2.44516 8.5e-5,1.35045 -1.405883,2.44523 -3.140206,2.44516 -1.734323,7e-5 -3.140291,-1.09471 -3.140206,-2.44516 -8.5e-5,-1.35045 1.405883,-2.44523 3.140206,-2.44516 z m 0.121338,6.13665 c 1.734328,-7e-5 3.140298,1.09471 3.140206,2.44517 8.5e-5,1.35045 -1.405883,2.44523 -3.140206,2.44516 -1.734323,7e-5 -3.140291,-1.09471 -3.140206,-2.44516 -9.2e-5,-1.35046 1.405878,-2.44524 3.140206,-2.44517 z m -0.121338,5.75873 c 1.734323,-7e-5 3.140291,1.09471 3.140206,2.44516 9.2e-5,1.35046 -1.405878,2.44524 -3.140206,2.44517 -1.734328,7e-5 -3.140298,-1.09471 -3.140206,-2.44517 -8.5e-5,-1.35045 1.405883,-2.44523 3.140206,-2.44516 z m -3.091804,6.75001 c 1.265727,-1.1e-4 2.291938,0.79874 2.292165,1.78431 1.35e-4,0.98577 -1.026182,1.78493 -2.292165,1.78482 -1.265724,-1.8e-4 -2.291637,-0.79925 -2.291502,-1.78482 2.27e-4,-0.98537 1.026034,-1.78413 2.291502,-1.78431 z m 5.092227,0.53591 c 0.952638,-5e-5 1.724864,0.62252 1.724594,1.39038 -8.7e-5,0.76766 -0.772208,1.38991 -1.724594,1.38986 -0.952386,5e-5 -1.724507,-0.6222 -1.724594,-1.38986 -2.7e-4,-0.76786 0.771956,-1.39043 1.724594,-1.39038 z m -8.487044,5.3173 c 1.265983,-1.1e-4 2.2923,0.79905 2.292165,1.78482 -2.27e-4,0.98557 -1.026438,1.78442 -2.292165,1.78431 -1.265468,-1.8e-4 -2.291275,-0.79894 -2.291502,-1.78431 -1.35e-4,-0.98557 1.025778,-1.78464 2.291502,-1.78482 z m 5.092226,0.53643 c 0.952386,-5e-5 1.724507,0.6222 1.724594,1.38986 -8.7e-5,0.76766 -0.772208,1.38991 -1.724594,1.38986 -0.952386,5e-5 -1.724507,-0.6222 -1.724594,-1.38986 8.7e-5,-0.76766 0.772208,-1.38991 1.724594,-1.38986 z"
       id="path4652"
       inkscape:connector-curvature="0"
       sodipodi:nodetypes="ccccccccccccccccsccccccccccccsccccccccccccccccscccccccccccccccccccscccccccccccccccccccccccccccccccccccc" />
  </g>
</svg>
